<svg xmlns="http://www.w3.org/2000/svg" id="dia-s01_d6_archivos" width="100%" aria-roledescription="flowchart-v2" class="flowchart" role="graphics-document document" style="max-width:1955.93px;background-color:transparent" viewBox="0 0 1955.926 134.75"><style>#dia-s01_d6_archivos{font-family:system-ui,-apple-system,&apos;Segoe UI&apos;,Roboto,sans-serif;font-size:15px;fill:#000000;}@keyframes edge-animation-frame{from{stroke-dashoffset:0;}}@keyframes dash{to{stroke-dashoffset:0;}}#dia-s01_d6_archivos .edge-animation-slow{stroke-dasharray:9,5!important;stroke-dashoffset:900;animation:dash 50s linear infinite;stroke-linecap:round;}#dia-s01_d6_archivos .edge-animation-fast{stroke-dasharray:9,5!important;stroke-dashoffset:900;animation:dash 20s linear infinite;stroke-linecap:round;}#dia-s01_d6_archivos .error-icon{fill:#552222;}#dia-s01_d6_archivos .error-text{fill:#552222;stroke:#552222;}#dia-s01_d6_archivos .edge-thickness-normal{stroke-width:1px;}#dia-s01_d6_archivos .edge-thickness-thick{stroke-width:3.5px;}#dia-s01_d6_archivos .edge-pattern-solid{stroke-dasharray:0;}#dia-s01_d6_archivos .edge-thickness-invisible{stroke-width:0;fill:none;}#dia-s01_d6_archivos .edge-pattern-dashed{stroke-dasharray:3;}#dia-s01_d6_archivos .edge-pattern-dotted{stroke-dasharray:2;}#dia-s01_d6_archivos .marker{fill:#52514e;stroke:#52514e;}#dia-s01_d6_archivos .marker.cross{stroke:#52514e;}#dia-s01_d6_archivos svg{font-family:system-ui,-apple-system,&apos;Segoe UI&apos;,Roboto,sans-serif;font-size:15px;}#dia-s01_d6_archivos p{margin:0;}#dia-s01_d6_archivos .label{font-family:system-ui,-apple-system,&apos;Segoe UI&apos;,Roboto,sans-serif;color:#000000;}#dia-s01_d6_archivos .cluster-label text{fill:#333;}#dia-s01_d6_archivos .cluster-label span{color:#333;}#dia-s01_d6_archivos .cluster-label span p{background-color:transparent;}#dia-s01_d6_archivos .label text,#dia-s01_d6_archivos span{fill:#000000;color:#000000;}#dia-s01_d6_archivos .node rect,#dia-s01_d6_archivos .node circle,#dia-s01_d6_archivos .node ellipse,#dia-s01_d6_archivos .node polygon,#dia-s01_d6_archivos .node path{fill:#eee;stroke:#999;stroke-width:1px;}#dia-s01_d6_archivos .rough-node .label text,#dia-s01_d6_archivos .node .label text,#dia-s01_d6_archivos .image-shape .label,#dia-s01_d6_archivos .icon-shape .label{text-anchor:middle;}#dia-s01_d6_archivos .node .katex path{fill:#000;stroke:#000;stroke-width:1px;}#dia-s01_d6_archivos .rough-node .label,#dia-s01_d6_archivos .node .label,#dia-s01_d6_archivos .image-shape .label,#dia-s01_d6_archivos .icon-shape .label{text-align:center;}#dia-s01_d6_archivos .node.clickable{cursor:pointer;}#dia-s01_d6_archivos .root .anchor path{fill:#52514e!important;stroke-width:0;stroke:#52514e;}#dia-s01_d6_archivos .arrowheadPath{fill:#333333;}#dia-s01_d6_archivos .edgePath .path{stroke:#52514e;stroke-width:1px;}#dia-s01_d6_archivos .flowchart-link{stroke:#52514e;fill:none;}#dia-s01_d6_archivos .edgeLabel{background-color:white;text-align:center;}#dia-s01_d6_archivos .edgeLabel p{background-color:white;}#dia-s01_d6_archivos .edgeLabel rect{opacity:0.5;background-color:white;fill:white;}#dia-s01_d6_archivos .labelBkg{background-color:rgba(255, 255, 255, 0.5);}#dia-s01_d6_archivos .cluster rect{fill:hsl(0, 0%, 98.9215686275%);stroke:#707070;stroke-width:1px;}#dia-s01_d6_archivos .cluster text{fill:#333;}#dia-s01_d6_archivos .cluster span{color:#333;}#dia-s01_d6_archivos div.mermaidTooltip{position:absolute;text-align:center;max-width:200px;padding:2px;font-family:system-ui,-apple-system,&apos;Segoe UI&apos;,Roboto,sans-serif;font-size:12px;background:#fdf6e3;border:1px solid #707070;border-radius:2px;pointer-events:none;z-index:100;}#dia-s01_d6_archivos .flowchartTitleText{text-anchor:middle;font-size:18px;fill:#000000;}#dia-s01_d6_archivos rect.text{fill:none;stroke-width:0;}#dia-s01_d6_archivos .icon-shape,#dia-s01_d6_archivos .image-shape{background-color:white;text-align:center;}#dia-s01_d6_archivos .icon-shape p,#dia-s01_d6_archivos .image-shape p{background-color:white;padding:2px;}#dia-s01_d6_archivos .icon-shape .label rect,#dia-s01_d6_archivos .image-shape .label rect{opacity:0.5;background-color:white;fill:white;}#dia-s01_d6_archivos .label-icon{display:inline-block;height:1em;overflow:visible;vertical-align:-0.125em;}#dia-s01_d6_archivos .node .label-icon path{fill:currentColor;stroke:revert;stroke-width:revert;}#dia-s01_d6_archivos .node .neo-node{stroke:#999;}#dia-s01_d6_archivos [data-look=&quot;neo&quot;].node rect,#dia-s01_d6_archivos [data-look=&quot;neo&quot;].cluster rect,#dia-s01_d6_archivos [data-look=&quot;neo&quot;].node polygon{stroke:url(#dia-s01_d6_archivos-gradient);filter:drop-shadow( 1px 2px 2px rgba(185,185,185,1));}#dia-s01_d6_archivos [data-look=&quot;neo&quot;].swimlane.cluster rect{filter:none;}#dia-s01_d6_archivos [data-look=&quot;neo&quot;].node path{stroke:url(#dia-s01_d6_archivos-gradient);stroke-width:1px;}#dia-s01_d6_archivos [data-look=&quot;neo&quot;].node .outer-path{filter:drop-shadow( 1px 2px 2px rgba(185,185,185,1));}#dia-s01_d6_archivos [data-look=&quot;neo&quot;].node .neo-line path{stroke:#999;filter:none;}#dia-s01_d6_archivos [data-look=&quot;neo&quot;].node circle{stroke:url(#dia-s01_d6_archivos-gradient);filter:drop-shadow( 1px 2px 2px rgba(185,185,185,1));}#dia-s01_d6_archivos [data-look=&quot;neo&quot;].node circle .state-start{fill:#000000;}#dia-s01_d6_archivos [data-look=&quot;neo&quot;].icon-shape .icon{fill:url(#dia-s01_d6_archivos-gradient);filter:drop-shadow( 1px 2px 2px rgba(185,185,185,1));}#dia-s01_d6_archivos [data-look=&quot;neo&quot;].icon-shape .icon-neo path{stroke:url(#dia-s01_d6_archivos-gradient);filter:drop-shadow( 1px 2px 2px rgba(185,185,185,1));}#dia-s01_d6_archivos :root{--mermaid-font-family:&quot;trebuchet ms&quot;,verdana,arial,sans-serif;}#dia-s01_d6_archivos .escribir rect{fill:rgb(232, 240, 251)!important;stroke:rgb(42, 120, 214)!important;color:rgb(16, 41, 77)!important;}#dia-s01_d6_archivos .escribir polygon{fill:rgb(232, 240, 251)!important;stroke:rgb(42, 120, 214)!important;color:rgb(16, 41, 77)!important;}#dia-s01_d6_archivos .escribir ellipse{fill:rgb(232, 240, 251)!important;stroke:rgb(42, 120, 214)!important;color:rgb(16, 41, 77)!important;}#dia-s01_d6_archivos .escribir circle{fill:rgb(232, 240, 251)!important;stroke:rgb(42, 120, 214)!important;color:rgb(16, 41, 77)!important;}#dia-s01_d6_archivos .escribir path{fill:rgb(232, 240, 251)!important;stroke:rgb(42, 120, 214)!important;color:rgb(16, 41, 77)!important;}#dia-s01_d6_archivos .escribir tspan{fill:rgb(16, 41, 77)!important;}#dia-s01_d6_archivos .leer rect{fill:rgb(233, 247, 238)!important;stroke:rgb(12, 163, 12)!important;color:rgb(16, 41, 77)!important;}#dia-s01_d6_archivos .leer polygon{fill:rgb(233, 247, 238)!important;stroke:rgb(12, 163, 12)!important;color:rgb(16, 41, 77)!important;}#dia-s01_d6_archivos .leer ellipse{fill:rgb(233, 247, 238)!important;stroke:rgb(12, 163, 12)!important;color:rgb(16, 41, 77)!important;}#dia-s01_d6_archivos .leer circle{fill:rgb(233, 247, 238)!important;stroke:rgb(12, 163, 12)!important;color:rgb(16, 41, 77)!important;}#dia-s01_d6_archivos .leer path{fill:rgb(233, 247, 238)!important;stroke:rgb(12, 163, 12)!important;color:rgb(16, 41, 77)!important;}#dia-s01_d6_archivos .leer tspan{fill:rgb(16, 41, 77)!important;}</style><marker id="dia-s01_d6_archivos_flowchart-v2-pointEnd" class="marker flowchart-v2" markerHeight="8" markerUnits="userSpaceOnUse" markerWidth="8" orient="auto" refX="5" refY="5" viewBox="0 0 10 10"><path d="m0 0 10 5-10 5z" class="arrowMarkerPath" style="stroke-width:1;stroke-dasharray:1,0"/></marker><marker id="dia-s01_d6_archivos_flowchart-v2-pointStart" class="marker flowchart-v2" markerHeight="8" markerUnits="userSpaceOnUse" markerWidth="8" orient="auto" refX="4.5" refY="5" viewBox="0 0 10 10"><path d="m0 5 10 5V0z" class="arrowMarkerPath" style="stroke-width:1;stroke-dasharray:1,0"/></marker><marker id="dia-s01_d6_archivos_flowchart-v2-pointEnd-margin" class="marker flowchart-v2" markerHeight="14" markerUnits="userSpaceOnUse" markerWidth="10.5" orient="auto" refX="11.5" refY="7" viewBox="0 0 11.5 14"><path d="m0 0 11.5 7L0 14z" class="arrowMarkerPath" style="stroke-width:0;stroke-dasharray:1,0"/></marker><marker id="dia-s01_d6_archivos_flowchart-v2-pointStart-margin" class="marker flowchart-v2" markerHeight="14" markerUnits="userSpaceOnUse" markerWidth="11.5" orient="auto" refX="1" refY="7" viewBox="0 0 11.5 14"><polygon points="0,7 11.5,14 11.5,0" class="arrowMarkerPath" style="stroke-width:0;stroke-dasharray:1,0"/></marker><marker id="dia-s01_d6_archivos_flowchart-v2-circleEnd" class="marker flowchart-v2" markerHeight="11" markerUnits="userSpaceOnUse" markerWidth="11" orient="auto" refX="11" refY="5" viewBox="0 0 10 10"><circle cx="5" cy="5" r="5" class="arrowMarkerPath" style="stroke-width:1;stroke-dasharray:1,0"/></marker><marker id="dia-s01_d6_archivos_flowchart-v2-circleStart" class="marker flowchart-v2" markerHeight="11" markerUnits="userSpaceOnUse" markerWidth="11" orient="auto" refX="-1" refY="5" viewBox="0 0 10 10"><circle cx="5" cy="5" r="5" class="arrowMarkerPath" style="stroke-width:1;stroke-dasharray:1,0"/></marker><marker id="dia-s01_d6_archivos_flowchart-v2-circleEnd-margin" class="marker flowchart-v2" markerHeight="14" markerUnits="userSpaceOnUse" markerWidth="14" orient="auto" refX="12.25" refY="5" viewBox="0 0 10 10"><circle cx="5" cy="5" r="5" class="arrowMarkerPath" style="stroke-width:0;stroke-dasharray:1,0"/></marker><marker id="dia-s01_d6_archivos_flowchart-v2-circleStart-margin" class="marker flowchart-v2" markerHeight="14" markerUnits="userSpaceOnUse" markerWidth="14" orient="auto" refX="-2" refY="5" viewBox="0 0 10 10"><circle cx="5" cy="5" r="5" class="arrowMarkerPath" style="stroke-width:0;stroke-dasharray:1,0"/></marker><marker id="dia-s01_d6_archivos_flowchart-v2-crossEnd" class="marker cross flowchart-v2" markerHeight="11" markerUnits="userSpaceOnUse" markerWidth="11" orient="auto" refX="12" refY="5.2" viewBox="0 0 11 11"><path d="m1 1 9 9m0-9-9 9" class="arrowMarkerPath" style="stroke-width:2;stroke-dasharray:1,0"/></marker><marker id="dia-s01_d6_archivos_flowchart-v2-crossStart" class="marker cross flowchart-v2" markerHeight="11" markerUnits="userSpaceOnUse" markerWidth="11" orient="auto" refX="-1" refY="5.2" viewBox="0 0 11 11"><path d="m1 1 9 9m0-9-9 9" class="arrowMarkerPath" style="stroke-width:2;stroke-dasharray:1,0"/></marker><marker id="dia-s01_d6_archivos_flowchart-v2-crossEnd-margin" class="marker cross flowchart-v2" markerHeight="12" markerUnits="userSpaceOnUse" markerWidth="12" orient="auto" refX="17.7" refY="7.5" viewBox="0 0 15 15"><path d="m1 1 13 13M1 14 14 1" class="arrowMarkerPath" style="stroke-width:2.5"/></marker><marker id="dia-s01_d6_archivos_flowchart-v2-crossStart-margin" class="marker cross flowchart-v2" markerHeight="12" markerUnits="userSpaceOnUse" markerWidth="12" orient="auto" refX="-3.5" refY="7.5" viewBox="0 0 15 15"><path d="m1 1 13 13M1 14 14 1" class="arrowMarkerPath" style="stroke-width:2.5;stroke-dasharray:1,0"/></marker><g class="root"><g class="edgePaths"><path id="dia-s01_d6_archivos-L_N_A_0" marker-end="url(#dia-s01_d6_archivos_flowchart-v2-pointEnd)" d="m95.389 74.375 4.084-.083c4.083-.084 12.25-.25 19.833-.334 7.583-.083 14.583-.083 18.083-.083h3.5" class="edge-thickness-normal edge-pattern-solid edge-thickness-normal edge-pattern-solid flowchart-link" data-edge="true" data-et="edge" data-id="L_N_A_0" data-look="classic" data-points="W3sieCI6OTUuMzg5Mjk1MTM0NjIyMTksInkiOjc0LjM3NX0seyJ4IjoxMTkuODg5Mjk3NDg1MzUxNTYsInkiOjczLjg3NX0seyJ4IjoxNDQuODg5Mjk3NDg1MzUxNTYsInkiOjczLjg3NX1d"/><path id="dia-s01_d6_archivos-L_A_B_0" marker-end="url(#dia-s01_d6_archivos_flowchart-v2-pointEnd)" d="M373.764 73.875h46" class="edge-thickness-normal edge-pattern-solid edge-thickness-normal edge-pattern-solid flowchart-link" data-edge="true" data-et="edge" data-id="L_A_B_0" data-look="classic" data-points="W3sieCI6MzczLjc2NDI5NzQ4NTM1MTU2LCJ5Ijo3My44NzV9LHsieCI6Mzk4Ljc2NDI5NzQ4NTM1MTU2LCJ5Ijo3My44NzV9LHsieCI6NDIzLjc2NDI5NzQ4NTM1MTU2LCJ5Ijo3My44NzV9XQ=="/><path id="dia-s01_d6_archivos-L_B_C_0" marker-end="url(#dia-s01_d6_archivos_flowchart-v2-pointEnd)" d="M636.936 73.875h46" class="edge-thickness-normal edge-pattern-solid edge-thickness-normal edge-pattern-solid flowchart-link" data-edge="true" data-et="edge" data-id="L_B_C_0" data-look="classic" data-points="W3sieCI6NjM2LjkzNjE3MjQ4NTM1MTYsInkiOjczLjg3NX0seyJ4Ijo2NjEuOTM2MTcyNDg1MzUxNiwieSI6NzMuODc1fSx7IngiOjY4Ni45MzYxNzI0ODUzNTE2LCJ5Ijo3My44NzV9XQ=="/><path id="dia-s01_d6_archivos-L_C_D_0" marker-end="url(#dia-s01_d6_archivos_flowchart-v2-pointEnd)" d="m933.217 45.925 4.167-.946c4.167-.946 12.5-2.837 20.167-3.783 7.666-.946 14.666-.946 18.166-.946h3.5" class="edge-thickness-normal edge-pattern-solid edge-thickness-normal edge-pattern-solid flowchart-link" data-edge="true" data-et="edge" data-id="L_C_D_0" data-look="classic" data-points="W3sieCI6OTMzLjIxNzQyMjQ4NTM1MTYsInkiOjQ1LjkyNDUwNjkwODU1Mzk1fSx7IngiOjk1OC4yMTc0MjI0ODUzNTE2LCJ5Ijo0MC4yNX0seyJ4Ijo5ODMuMjE3NDIyNDg1MzUxNiwieSI6NDAuMjV9XQ=="/><path id="dia-s01_d6_archivos-L_D_E_0" marker-end="url(#dia-s01_d6_archivos_flowchart-v2-pointEnd)" d="M1217.717 40.25h244.047" class="edge-thickness-normal edge-pattern-solid edge-thickness-normal edge-pattern-solid flowchart-link" data-edge="true" data-et="edge" data-id="L_D_E_0" data-look="classic" data-points="W3sieCI6MTIxNy43MTc0MjI0ODUzNTE2LCJ5Ijo0MC4yNX0seyJ4IjoxMzQxLjc0MDg1OTk4NTM1MTYsInkiOjQwLjI1fSx7IngiOjE0NjUuNzY0Mjk3NDg1MzUxNiwieSI6NDAuMjV9XQ=="/><path id="dia-s01_d6_archivos-L_E_F_0" marker-end="url(#dia-s01_d6_archivos_flowchart-v2-pointEnd)" d="M1689.936 40.25h4.167c4.167 0 12.5 0 22.885 1.677s22.821 5.03 29.04 6.707l6.218 1.677" class="edge-thickness-normal edge-pattern-solid edge-thickness-normal edge-pattern-solid flowchart-link" data-edge="true" data-et="edge" data-id="L_E_F_0" data-look="classic" data-points="W3sieCI6MTY4OS45MzYxNzI0ODUzNTE2LCJ5Ijo0MC4yNX0seyJ4IjoxNzE0LjkzNjE3MjQ4NTM1MTYsInkiOjQwLjI1fSx7IngiOjE3NTYuMTA4MTM3ODM3ODkwNCwieSI6NTEuMzUxOTEzNTI1NTMxMzh9XQ=="/><path id="dia-s01_d6_archivos-L_C_F_0" marker-end="url(#dia-s01_d6_archivos_flowchart-v2-pointEnd)" d="m933.217 101.825 4.167.946c4.167.946 12.5 2.837 40.375 3.783s75.292.946 139.212.946h444.375c62.2 0 107.895 0 136.957-1.525s41.491-4.574 47.706-6.099l6.214-1.525" class="edge-thickness-normal edge-pattern-dotted edge-thickness-normal edge-pattern-solid flowchart-link" data-edge="true" data-et="edge" data-id="L_C_F_0" data-look="classic" data-points="W3sieCI6OTMzLjIxNzQyMjQ4NTM1MTYsInkiOjEwMS44MjU0OTMwOTE0NDYwNX0seyJ4Ijo5NTguMjE3NDIyNDg1MzUxNiwieSI6MTA3LjV9LHsieCI6MTEwMC40Njc0MjI0ODUzNTE2LCJ5IjoxMDcuNX0seyJ4IjoxMzQxLjc0MDg1OTk4NTM1MTYsInkiOjEwNy41fSx7IngiOjE1NzcuODUwMjM0OTg1MzUxNiwieSI6MTA3LjV9LHsieCI6MTcxNC45MzYxNzI0ODUzNTE2LCJ5IjoxMDcuNX0seyJ4IjoxNzU2LjEwODEzNzgzNzkwMDQsInkiOjk3LjM5ODA4NjQ3NDQ2NTk2fV0="/></g><g class="edgeLabels"><rect class="background" style="stroke:none"/><rect class="background" style="stroke:none"/><rect class="background" style="stroke:none"/><rect class="background" style="stroke:none"/><rect class="background" style="stroke:none"/><rect class="background" style="stroke:none"/><g class="edgeLabel"><g class="label" data-id="L_C_F_0" transform="translate(1341.74 90.25)"><rect width="198.047" height="38.5" x="-99.023" y="-2" class="background"/><text y="-10.1" text-anchor="middle"><tspan x="0" y="-.1em" class="text-outer-tspan row" dy="1.1em" text-anchor="middle"><tspan class="text-inner-tspan" font-style="normal" font-weight="normal">sigue</tspan><tspan class="text-inner-tspan" font-style="normal" font-weight="normal"> ahí</tspan><tspan class="text-inner-tspan" font-style="normal" font-weight="normal"> aunque</tspan><tspan class="text-inner-tspan" font-style="normal" font-weight="normal"> apagues</tspan><tspan class="text-inner-tspan" font-style="normal" font-weight="normal"> el</tspan></tspan><tspan x="0" y="1em" class="text-outer-tspan row" dy="1.1em" text-anchor="middle"><tspan class="text-inner-tspan" font-style="normal" font-weight="normal">kernel</tspan></tspan></text></g></g></g><g class="nodes"><g id="dia-s01_d6_archivos-flowchart-N-0" class="node default" data-look="classic"><g class="basic label-container outer-path"><path fill="#eee" stroke="none" stroke-width="0" d="M24.492 57.375h53.906l1.057.034 1.053.101 1.044.17 1.031.235 1.014.3.993.366.967.428.938.49c.349.21.698.422.904.548l.868.605.827.66.783.71.735.76.686.805.633.848.577.887.519.921.459.953.397.98.333 1.004.268 1.023.202 1.039.136 1.049.067 1.055v1.058l-.067 1.055-.136 1.05-.202 1.038-.268 1.023-.333 1.004c-.09.219-.178.438-.397.98-.096.198-.19.396-.46.953l-.518.921-.577.887-.633.848-.686.805-.735.76-.783.71-.827.66-.868.605-.904.549-.938.489-.967.428c-.27.1-.541.2-.993.365l-1.014.301-1.031.236-1.044.169-1.053.101-1.057.034H24.492l-1.058-.034-1.052-.101-1.045-.17-1.03-.235-1.015-.3-.992-.366-.968-.428-.937-.49-.905-.548-.867-.605-.827-.66-.783-.71-.736-.76-.686-.805-.632-.848-.577-.887-.52-.921-.458-.953-.397-.98-.333-1.004-.269-1.023-.202-1.039-.135-1.049L8 74.404v-1.058l.068-1.055.135-1.05.202-1.038.269-1.023.333-1.004.397-.98.459-.953.519-.921.577-.887.632-.848.686-.805.736-.76.783-.71c.19-.153.38-.304.827-.66l.867-.605.905-.549.937-.489.968-.428.992-.365 1.014-.301 1.031-.236 1.045-.169 1.052-.101 1.058-.034"/><path fill="none" stroke="#999" stroke-dasharray="0 0" stroke-width="1.3" d="M24.492 57.375h53.906m-53.906 0h53.906m0 0 1.057.034m-1.057-.034 1.057.034m0 0 1.053.101m-1.053-.101 1.053.101m0 0 1.044.17m-1.044-.17 1.044.17m0 0 1.031.235m-1.031-.236 1.031.236m0 0 1.014.3m-1.014-.3 1.014.3m0 0 .993.366m-.993-.365.993.365m0 0 .967.428m-.967-.428.967.428m0 0 .938.49m-.938-.49.938.49m0 0 .904.548m-.904-.549.904.549m0 0 .868.605m-.868-.605.868.605m0 0 .827.66m-.827-.66.827.66m0 0 .783.71m-.783-.71.783.71m0 0 .735.76m-.735-.76.735.76m0 0 .686.805m-.686-.805.686.805m0 0 .633.848m-.633-.848.633.848m0 0 .577.887m-.577-.887.577.887m0 0c.2.357.402.714.519.921m-.52-.921.52.921m0 0 .459.953m-.46-.953.46.953m0 0 .397.98m-.397-.98.397.98m0 0 .333 1.004m-.333-1.004.333 1.004m0 0 .268 1.023m-.268-1.023.268 1.023m0 0 .202 1.039m-.202-1.039.202 1.039m0 0 .136 1.049m-.136-1.05.136 1.05m0 0 .067 1.055m-.067-1.055.067 1.055m0 0v1.058m0-1.058v1.058m0 0-.067 1.055m.067-1.055-.067 1.055m0 0-.136 1.05m.136-1.05-.136 1.05m0 0-.202 1.038m.202-1.039-.202 1.039m0 0-.268 1.023m.268-1.023-.268 1.023m0 0-.333 1.004m.333-1.004-.333 1.004m0 0-.397.98m.397-.98-.397.98m0 0-.46.953m.46-.953-.46.953m0 0-.518.921m.519-.921c-.197.35-.394.7-.52.921m0 0-.576.887m.577-.887-.577.887m0 0-.633.848m.633-.848-.633.848m0 0-.686.805m.686-.805-.686.805m0 0-.735.76m.735-.76-.735.76m0 0-.783.71m.783-.71-.783.71m0 0-.827.66m.827-.66-.827.66m0 0-.868.605m.868-.605-.868.605m0 0-.904.549m.904-.549-.904.549m0 0-.938.489m.938-.49-.938.49m0 0-.967.428m.967-.428-.967.428m0 0-.993.365m.993-.365-.993.365m0 0-1.014.301m1.014-.3-1.014.3m0 0-1.031.236m1.031-.236-1.031.236m0 0-1.044.169m1.044-.17-1.044.17m0 0-1.053.101m1.053-.101-1.053.101m0 0-1.057.034m1.057-.034-1.057.034m0 0H24.492m53.906 0H24.492m0 0-1.058-.034m1.058.034-1.058-.034m0 0-1.052-.101m1.052.101-1.052-.101m0 0-1.045-.17m1.045.17-1.045-.17m0 0-1.03-.235m1.03.236-1.03-.236m0 0-1.015-.3m1.014.3-1.014-.3m0 0-.992-.366m.992.365-.992-.365m0 0-.968-.428m.968.428-.968-.428m0 0-.937-.49m.937.49-.937-.49m0 0-.905-.548m.905.549-.905-.549m0 0-.867-.605m.867.605-.867-.605m0 0-.827-.66m.827.66c-.31-.246-.619-.493-.827-.66m0 0-.783-.71m.783.71-.783-.71m0 0-.736-.76m.736.76-.736-.76m0 0-.686-.805m.686.805-.686-.805m0 0-.632-.848m.632.848-.632-.848m0 0-.577-.887m.577.887-.577-.887m0 0-.52-.921m.52.921-.52-.921m0 0-.458-.953m.459.953-.46-.953m0 0-.396-.98m.397.98-.397-.98m0 0-.333-1.004m.333 1.004-.333-1.004m0 0-.269-1.023m.269 1.023-.269-1.023m0 0-.202-1.039m.202 1.039-.202-1.039m0 0-.135-1.049m.135 1.05-.135-1.05m0 0L8 74.404m.068 1.055L8 74.404m0 0v-1.058m0 1.058v-1.058m0 0 .068-1.055M8 73.346l.068-1.055m0 0 .135-1.05m-.135 1.05.135-1.05m0 0 .202-1.038m-.202 1.039.202-1.039m0 0 .269-1.023m-.269 1.023.269-1.023m0 0 .333-1.004m-.333 1.004.333-1.004m0 0 .397-.98m-.397.98.397-.98m0 0 .459-.953m-.46.953.46-.953m0 0 .519-.921m-.52.921.52-.921m0 0 .577-.887m-.577.887.577-.887m0 0 .632-.848m-.632.848.632-.848m0 0 .686-.805m-.686.805.686-.805m0 0 .736-.76m-.736.76.736-.76m0 0 .783-.71m-.783.71.783-.71m0 0 .827-.66m-.827.66.827-.66m0 0 .867-.605m-.867.605.867-.605m0 0 .905-.549m-.905.549.905-.549m0 0 .937-.489m-.937.49.937-.49m0 0 .968-.428m-.968.428.968-.428m0 0 .992-.365m-.992.365.992-.365m0 0 1.014-.301m-1.014.3 1.014-.3m0 0 1.031-.236m-1.03.236 1.03-.236m0 0 1.045-.169m-1.045.17 1.045-.17m0 0 1.052-.101m-1.052.101 1.052-.101m0 0 1.058-.034m-1.058.034 1.058-.034m0 0"/></g><g class="label" transform="translate(51.445 64.875)"><rect/><rect class="background" style="stroke:none"/><text y="-10.1"><tspan x="0" y="-.1em" class="text-outer-tspan row" dy="1.1em"><tspan class="text-inner-tspan" font-style="normal" font-weight="normal">No</tspan><tspan class="text-inner-tspan" font-style="normal" font-weight="normal"> existe</tspan></tspan></text></g></g><g id="dia-s01_d6_archivos-flowchart-A-1" class="node default escribir" data-look="classic" transform="translate(259.327 73.875)"><rect width="228.875" height="64.5" x="-114.438" y="-32.25" class="basic label-container" style="fill:#e8f0fb!important;stroke:#2a78d6!important"/><g class="label" style="color:#10294d!important" transform="translate(0 -17.25)"><rect/><rect class="background" style="stroke:none"/><text y="-10.1" style="fill:#10294d!important"><tspan x="0" y="-.1em" class="text-outer-tspan row" dy="1.1em"><tspan class="text-inner-tspan" font-style="normal" font-weight="normal">abrir</tspan><tspan class="text-inner-tspan" font-style="normal" font-weight="normal"> en</tspan><tspan class="text-inner-tspan" font-style="normal" font-weight="normal"> modo</tspan><tspan class="text-inner-tspan" font-style="normal" font-weight="normal"> w</tspan><tspan class="text-inner-tspan" font-style="normal" font-weight="normal"> ·</tspan><tspan class="text-inner-tspan" font-style="normal" font-weight="normal"> lo</tspan><tspan class="text-inner-tspan" font-style="normal" font-weight="normal"> crea</tspan></tspan><tspan x="0" y="1em" class="text-outer-tspan row" dy="1.1em"><tspan class="text-inner-tspan" font-style="normal" font-weight="normal">vacío</tspan></tspan></text></g></g><g id="dia-s01_d6_archivos-flowchart-B-2" class="node default escribir" data-look="classic" transform="translate(530.35 73.875)"><rect width="213.172" height="48" x="-106.586" y="-24" class="basic label-container" style="fill:#e8f0fb!important;stroke:#2a78d6!important"/><g class="label" style="color:#10294d!important" transform="translate(0 -9)"><rect/><rect class="background" style="stroke:none"/><text y="-10.1" style="fill:#10294d!important"><tspan x="0" y="-.1em" class="text-outer-tspan row" dy="1.1em"><tspan class="text-inner-tspan" font-style="normal" font-weight="normal">escribir</tspan><tspan class="text-inner-tspan" font-style="normal" font-weight="normal"> ·</tspan><tspan class="text-inner-tspan" font-style="normal" font-weight="normal"> el</tspan><tspan class="text-inner-tspan" font-style="normal" font-weight="normal"> texto</tspan><tspan class="text-inner-tspan" font-style="normal" font-weight="normal"> entra</tspan></tspan></text></g></g><g id="dia-s01_d6_archivos-flowchart-C-3" class="node default escribir" data-look="classic" transform="translate(810.077 73.875)"><rect width="246.281" height="64.5" x="-123.141" y="-32.25" class="basic label-container" style="fill:#e8f0fb!important;stroke:#2a78d6!important"/><g class="label" style="color:#10294d!important" transform="translate(0 -17.25)"><rect/><rect class="background" style="stroke:none"/><text y="-10.1" style="fill:#10294d!important"><tspan x="0" y="-.1em" class="text-outer-tspan row" dy="1.1em"><tspan class="text-inner-tspan" font-style="normal" font-weight="normal">cerrar</tspan><tspan class="text-inner-tspan" font-style="normal" font-weight="normal"> ·</tspan><tspan class="text-inner-tspan" font-style="normal" font-weight="normal"> queda</tspan><tspan class="text-inner-tspan" font-style="normal" font-weight="normal"> guardado</tspan><tspan class="text-inner-tspan" font-style="normal" font-weight="normal"> en</tspan></tspan><tspan x="0" y="1em" class="text-outer-tspan row" dy="1.1em"><tspan class="text-inner-tspan" font-style="normal" font-weight="normal">el</tspan><tspan class="text-inner-tspan" font-style="normal" font-weight="normal"> disco</tspan></tspan></text></g></g><g id="dia-s01_d6_archivos-flowchart-D-4" class="node default leer" data-look="classic" transform="translate(1100.467 40.25)"><rect width="234.5" height="64.5" x="-117.25" y="-32.25" class="basic label-container" style="fill:#e9f7ee!important;stroke:#0ca30c!important"/><g class="label" style="color:#10294d!important" transform="translate(0 -17.25)"><rect/><rect class="background" style="stroke:none"/><text y="-10.1" style="fill:#10294d!important"><tspan x="0" y="-.1em" class="text-outer-tspan row" dy="1.1em"><tspan class="text-inner-tspan" font-style="normal" font-weight="normal">abrir</tspan><tspan class="text-inner-tspan" font-style="normal" font-weight="normal"> en</tspan><tspan class="text-inner-tspan" font-style="normal" font-weight="normal"> modo</tspan><tspan class="text-inner-tspan" font-style="normal" font-weight="normal"> r</tspan><tspan class="text-inner-tspan" font-style="normal" font-weight="normal"> ·</tspan><tspan class="text-inner-tspan" font-style="normal" font-weight="normal"> lo</tspan><tspan class="text-inner-tspan" font-style="normal" font-weight="normal"> busca</tspan></tspan><tspan x="0" y="1em" class="text-outer-tspan row" dy="1.1em"><tspan class="text-inner-tspan" font-style="normal" font-weight="normal">por</tspan><tspan class="text-inner-tspan" font-style="normal" font-weight="normal"> su</tspan><tspan class="text-inner-tspan" font-style="normal" font-weight="normal"> ruta</tspan></tspan></text></g></g><g id="dia-s01_d6_archivos-flowchart-E-5" class="node default leer" data-look="classic" transform="translate(1577.85 40.25)"><rect width="224.172" height="64.5" x="-112.086" y="-32.25" class="basic label-container" style="fill:#e9f7ee!important;stroke:#0ca30c!important"/><g class="label" style="color:#10294d!important" transform="translate(0 -17.25)"><rect/><rect class="background" style="stroke:none"/><text y="-10.1" style="fill:#10294d!important"><tspan x="0" y="-.1em" class="text-outer-tspan row" dy="1.1em"><tspan class="text-inner-tspan" font-style="normal" font-weight="normal">leer</tspan><tspan class="text-inner-tspan" font-style="normal" font-weight="normal"> ·</tspan><tspan class="text-inner-tspan" font-style="normal" font-weight="normal"> el</tspan><tspan class="text-inner-tspan" font-style="normal" font-weight="normal"> texto</tspan><tspan class="text-inner-tspan" font-style="normal" font-weight="normal"> vuelve</tspan><tspan class="text-inner-tspan" font-style="normal" font-weight="normal"> a</tspan><tspan class="text-inner-tspan" font-style="normal" font-weight="normal"> la</tspan></tspan><tspan x="0" y="1em" class="text-outer-tspan row" dy="1.1em"><tspan class="text-inner-tspan" font-style="normal" font-weight="normal">memoria</tspan></tspan></text></g></g><g id="dia-s01_d6_archivos-flowchart-F-6" class="node default" data-look="classic"><g class="basic label-container outer-path"><path fill="#eee" stroke="none" stroke-width="0" d="M1764.673 49.125h158.516l1.586.05 1.579.153 1.566.253 1.547.353 1.521.452 1.489.548 1.45.642 1.407.734 1.357.822 1.301.908 1.24.99c.346.312.69.626 1.175 1.066l1.104 1.14 1.028 1.208c.26.346.518.693.95 1.271l.865 1.33c.24.425.48.85.778 1.382l.689 1.43.595 1.47.5 1.506.403 1.535.303 1.557.203 1.573.101 1.584v1.586l-.101 1.584-.203 1.573-.303 1.557-.403 1.535-.5 1.506-.595 1.47-.689 1.43-.778 1.382-.866 1.33-.949 1.271-1.028 1.208-1.104 1.14-1.174 1.067-1.24.989-1.302.908-1.357.822-1.406.734-1.451.642-1.489.548-1.521.452-1.547.353-1.566.253-1.58.152-1.585.051h-158.516c-.614-.02-1.229-.04-1.585-.05l-1.58-.153-1.566-.253-1.546-.353-1.521-.452-1.49-.548-1.45-.642-1.407-.734-1.357-.822-1.3-.908-1.241-.99-1.175-1.066-1.103-1.14-1.029-1.208-.949-1.271-.865-1.33-.779-1.382-.688-1.43-.596-1.47-.5-1.506-.402-1.535-.303-1.557-.203-1.573-.102-1.584v-1.586l.102-1.584.203-1.573.303-1.557.402-1.535.5-1.506.596-1.47.688-1.43.779-1.382.865-1.33.95-1.271c.381-.45.764-.898 1.028-1.208l1.103-1.14 1.175-1.067 1.24-.989 1.301-.908 1.357-.822 1.407-.734 1.45-.642 1.49-.548 1.52-.452 1.547-.353 1.566-.253 1.58-.152 1.585-.051"/><path fill="none" stroke="#999" stroke-dasharray="0 0" stroke-width="1.3" d="M1764.673 49.125h158.516m-158.516 0h158.516m0 0 1.586.05m-1.586-.05 1.586.05m0 0 1.579.153m-1.58-.152 1.58.152m0 0 1.566.253m-1.566-.253 1.566.253m0 0 1.547.353m-1.547-.353 1.547.353m0 0 1.521.452m-1.521-.452 1.521.452m0 0 1.489.548m-1.489-.548 1.489.548m0 0 1.45.642m-1.45-.642 1.45.642m0 0 1.407.734m-1.406-.734 1.406.734m0 0 1.357.822m-1.357-.822 1.357.822m0 0 1.301.908m-1.3-.908 1.3.908m0 0 1.24.99m-1.24-.99 1.24.99m0 0c.244.22.488.442 1.175 1.066m-1.174-1.067 1.174 1.067m0 0 1.104 1.14m-1.104-1.14 1.104 1.14m0 0 1.028 1.208m-1.028-1.208c.405.475.81.95 1.028 1.208m0 0 .95 1.271m-.95-1.271.95 1.271m0 0 .865 1.33m-.866-1.33.866 1.33m0 0 .778 1.382m-.778-1.382.778 1.382m0 0 .689 1.43m-.689-1.43.689 1.43m0 0 .595 1.47m-.595-1.47.595 1.47m0 0 .5 1.506m-.5-1.506.5 1.506m0 0 .403 1.535m-.403-1.535.403 1.535m0 0 .303 1.557m-.303-1.557.303 1.557m0 0 .203 1.573m-.203-1.573.203 1.573m0 0 .101 1.584m-.101-1.584.101 1.584m0 0v1.586m0-1.586v1.586m0 0-.101 1.584m.101-1.584-.101 1.584m0 0-.203 1.573m.203-1.573-.203 1.573m0 0-.303 1.557m.303-1.557-.303 1.557m0 0-.403 1.535m.403-1.535-.403 1.535m0 0-.5 1.506m.5-1.506-.5 1.506m0 0-.595 1.47m.595-1.47-.595 1.47m0 0-.689 1.43m.689-1.43-.689 1.43m0 0-.778 1.382m.778-1.382-.778 1.382m0 0-.866 1.33m.866-1.33-.866 1.33m0 0-.949 1.271m.95-1.271-.95 1.271m0 0-1.028 1.208m1.028-1.208-1.028 1.208m0 0-1.104 1.14m1.104-1.14-1.104 1.14m0 0-1.174 1.067m1.174-1.067-1.174 1.067m0 0-1.24.989m1.24-.99-1.24.99m0 0-1.302.908m1.301-.908-1.3.908m0 0-1.358.822m1.357-.822-1.357.822m0 0-1.406.734m1.406-.734-1.406.734m0 0-1.451.642m1.45-.642-1.45.642m0 0-1.489.548m1.489-.548-1.489.548m0 0-1.521.452m1.521-.452-1.521.452m0 0-1.547.353m1.547-.353-1.547.353m0 0c-.622.1-1.245.2-1.566.253m1.566-.253-1.566.253m0 0-1.58.152m1.58-.152-1.58.152m0 0-1.585.051m1.586-.05c-.572.017-1.144.036-1.586.05m0 0h-158.516m158.516 0h-158.516m0 0-1.585-.05m1.585.05c-.453-.015-.906-.03-1.585-.05m0 0-1.58-.153m1.58.152-1.58-.152m0 0-1.566-.253m1.566.253-1.566-.253m0 0-1.546-.353m1.546.353-1.546-.353m0 0-1.521-.452m1.52.452-1.52-.452m0 0-1.49-.548m1.49.548-1.49-.548m0 0-1.45-.642m1.45.642-1.45-.642m0 0-1.407-.734m1.407.734-1.407-.734m0 0-1.357-.822m1.357.822c-.33-.2-.658-.4-1.357-.822m0 0-1.3-.908m1.3.908-1.3-.908m0 0-1.241-.99m1.24.99-1.24-.99m0 0-1.175-1.066m1.175 1.067-1.175-1.067m0 0-1.103-1.14m1.103 1.14-1.103-1.14m0 0-1.029-1.208m1.029 1.208-1.029-1.208m0 0-.949-1.271m.95 1.271-.95-1.271m0 0-.865-1.33m.865 1.33-.865-1.33m0 0-.779-1.382m.779 1.382-.779-1.382m0 0-.688-1.43m.688 1.43-.688-1.43m0 0-.596-1.47m.596 1.47-.596-1.47m0 0c-.12-.363-.24-.727-.5-1.506m.5 1.506-.5-1.506m0 0-.402-1.535m.402 1.535-.402-1.535m0 0-.303-1.557m.303 1.557-.303-1.557m0 0-.203-1.573m.203 1.573-.203-1.573m0 0-.102-1.584m.102 1.584-.102-1.584m0 0v-1.586m0 1.586v-1.586m0 0 .102-1.584m-.102 1.584.102-1.584m0 0 .203-1.573m-.203 1.573.203-1.573m0 0 .303-1.557m-.303 1.557.303-1.557m0 0 .402-1.535m-.402 1.535.402-1.535m0 0 .5-1.506m-.5 1.506.5-1.506m0 0 .596-1.47m-.596 1.47.596-1.47m0 0 .688-1.43m-.688 1.43.688-1.43m0 0 .779-1.382m-.779 1.382.779-1.382m0 0 .865-1.33m-.865 1.33.865-1.33m0 0 .95-1.271m-.95 1.271.95-1.271m0 0 1.028-1.208m-1.029 1.208 1.029-1.208m0 0 1.103-1.14m-1.103 1.14 1.103-1.14m0 0 1.175-1.067m-1.175 1.067 1.175-1.067m0 0 1.24-.989m-1.24.99c.248-.2.497-.397 1.24-.99m0 0 1.301-.908m-1.3.908 1.3-.908m0 0 1.357-.822m-1.357.822 1.357-.822m0 0 1.407-.734m-1.407.734 1.407-.734m0 0 1.45-.642m-1.45.642 1.45-.642m0 0 1.49-.548m-1.49.548 1.49-.548m0 0 1.52-.452m-1.52.452 1.52-.452m0 0 1.547-.353m-1.546.353 1.546-.353m0 0 1.566-.253m-1.566.253 1.566-.253m0 0 1.58-.152m-1.58.152 1.58-.152m0 0 1.585-.051m-1.585.05 1.585-.05m0 0"/></g><g class="label" transform="translate(1843.931 56.625)"><rect/><rect class="background" style="stroke:none"/><text y="-10.1"><tspan x="0" y="-.1em" class="text-outer-tspan row" dy="1.1em"><tspan class="text-inner-tspan" font-style="normal" font-weight="normal">Nombre</tspan><tspan class="text-inner-tspan" font-style="normal" font-weight="normal"> ·</tspan><tspan class="text-inner-tspan" font-style="normal" font-weight="normal"> extensión</tspan><tspan class="text-inner-tspan" font-style="normal" font-weight="normal"> ·</tspan><tspan class="text-inner-tspan" font-style="normal" font-weight="normal"> ruta</tspan><tspan class="text-inner-tspan" font-style="normal" font-weight="normal"> ·</tspan></tspan><tspan x="0" y="1em" class="text-outer-tspan row" dy="1.1em"><tspan class="text-inner-tspan" font-style="normal" font-weight="normal">contenido</tspan></tspan></text></g></g></g></g><defs><filter id="dia-s01_d6_archivos-drop-shadow" width="130%" height="130%"><feDropShadow dx="4" dy="4" flood-color="#000" flood-opacity=".06" stdDeviation="0"/></filter></defs><defs><filter id="dia-s01_d6_archivos-drop-shadow-small" width="150%" height="150%"><feDropShadow dx="2" dy="2" flood-color="#000" flood-opacity=".06" stdDeviation="0"/></filter></defs><linearGradient id="dia-s01_d6_archivos-gradient" x1="0%" x2="100%" y1="0%" y2="0%" gradientUnits="objectBoundingBox"><stop offset="0%" stop-color="hsl(0, 0%, 83.3333333333%)" stop-opacity="1"/><stop offset="100%" stop-color="hsl(0, 0%, 88.9215686275%)" stop-opacity="1"/></linearGradient></svg>